<svg width="204" height="110" viewBox="0 0 204 110" fill="none" xmlns="http://www.w3.org/2000/svg">
<g clip-path="url(#clip0)">
<path d="M134.397 76.0983C134.397 93.83 119.891 108.206 102 108.206C84.1083 108.206 69.6023 93.83 69.6023 76.0983H134.397Z" fill="#9BBDAA"/>
<path d="M104.475 101.944C104.485 101.944 104.491 101.944 104.501 101.939C115.474 100.906 124.457 93.162 127.263 82.8924C124.299 81.7392 121.082 81.0817 117.701 81.0817C111.704 81.0817 106.186 83.0803 101.779 86.4461C97.4455 83.2838 92.0959 81.4156 86.2988 81.4156C82.95 81.4156 79.7592 82.0627 76.8159 83.1951C79.7119 93.2925 88.5997 100.89 99.441 101.934C99.4674 101.939 99.499 101.939 99.5253 101.944C99.8728 101.976 100.22 102.002 100.573 102.023C100.642 102.028 100.71 102.033 100.778 102.033C101.184 102.054 101.589 102.064 101.995 102.064C102.4 102.064 102.806 102.054 103.211 102.033C103.269 102.028 103.327 102.028 103.385 102.023C103.753 102.007 104.111 101.981 104.475 101.944Z" fill="#4D868E"/>
<path d="M91.9326 33.4388C91.9326 27.9283 96.4397 23.4614 102 23.4614C107.56 23.4614 112.067 27.9283 112.067 33.4388H91.9326Z" fill="#FFB547"/>
<path d="M102 1.32544C84.1083 1.32544 69.6023 15.7018 69.6023 33.4335H91.9326C91.9326 27.923 96.4397 23.4562 102 23.4562C107.56 23.4562 112.067 27.923 112.067 33.4335H134.397C134.397 15.7018 119.891 1.32544 102 1.32544Z" fill="#E15829"/>
<path d="M202.657 33.4387H1.3374V76.0982H202.657V33.4387Z" fill="white"/>
<path d="M127.679 81.8384C124.462 80.586 121.102 79.9493 117.701 79.9493C111.83 79.9493 106.302 81.8331 101.763 85.0737C97.3085 82.0366 91.9484 80.2833 86.2987 80.2833C82.9289 80.2833 79.6012 80.9095 76.3999 82.141L75.4258 82.5167L75.7101 83.5134C79.0325 95.1084 89.8422 103.207 102 103.207C105.37 103.207 108.697 102.581 111.899 101.349L112.873 100.974L112.862 100.937C120.302 97.7228 126.152 91.3147 128.369 83.2003L128.637 82.2193L127.679 81.8384ZM114.5 82.4489C115.553 82.3132 116.616 82.2245 117.701 82.2245C119.923 82.2245 122.119 82.5324 124.262 83.1168L114.5 87.9855V82.4489ZM112.204 82.8455V89.1283L108.16 91.1425C106.855 89.4257 105.354 87.8707 103.695 86.5139C106.254 84.7971 109.134 83.5395 112.204 82.8455ZM86.2987 82.5533C87.2464 82.5533 88.1837 82.6263 89.1156 82.7307V87.9855L79.8434 83.4143C81.9601 82.8507 84.1188 82.5533 86.2987 82.5533ZM78.8272 85.4598L90.9427 91.4295L85.8037 94.9936C82.7814 92.4523 80.3647 89.2013 78.8272 85.4598ZM87.7151 96.4391L93.2805 92.5776L99.462 95.625L94.481 99.7579C92.059 98.996 89.7791 97.8689 87.7151 96.4391ZM102 100.927C100.378 100.927 98.7828 100.749 97.2295 100.447L101.705 96.7313L108.455 100.061C106.339 100.629 104.18 100.927 102 100.927ZM91.4113 89.1178V83.1012C99.4778 84.7867 106.323 90.3702 109.471 98.0202L91.4113 89.1178ZM112.178 98.6882C111.493 96.6791 110.577 94.7901 109.471 93.0368L115.942 89.8119L120.676 92.588C118.322 95.2024 115.411 97.2531 112.178 98.6882ZM122.145 90.8086L118.38 88.596L125.294 85.152C124.483 87.1923 123.425 89.0865 122.145 90.8086Z" fill="#4F4A33"/>
<path d="M103.132 6.82556H100.836V18.8954H103.132V6.82556Z" fill="#4F4A33"/>
<path d="M120.161 13.8086L111.55 22.3433L113.173 23.952L121.785 15.4174L120.161 13.8086Z" fill="#4F4A33"/>
<path d="M83.8154 13.8309L82.1921 15.4397L90.8037 23.9743L92.427 22.3655L83.8154 13.8309Z" fill="#4F4A33"/>
<path d="M92.7726 8.42861L90.6516 9.29932L95.3124 20.4507L97.4334 19.58L92.7726 8.42861Z" fill="#4F4A33"/>
<path d="M126.363 22.1882L115.112 26.8074L115.99 28.9094L127.242 24.2903L126.363 22.1882Z" fill="#4F4A33"/>
<path d="M111.199 8.417L106.54 19.5684L108.661 20.4388L113.32 9.28748L111.199 8.417Z" fill="#4F4A33"/>
<path d="M77.6232 22.2183L76.7449 24.3203L87.9968 28.9382L88.8751 26.8362L77.6232 22.2183Z" fill="#4F4A33"/>
<path d="M204 77.4236V32.1081H135.703C134.998 14.2877 120.155 0 102 0C83.8451 0 69.0022 14.2877 68.2966 32.1081H0V77.4236H8.7931L11.2678 83.0124L8.20339 89.9266H71.2926C76.6106 101.48 88.3681 109.532 101.995 109.532C115.621 109.532 127.379 101.48 132.702 89.9266H195.791L192.727 83.0124L195.202 77.4236H204ZM102 2.65089C118.675 2.65089 132.286 15.7488 132.992 32.1081H113.32C112.657 26.4984 107.834 22.1307 102 22.1307C96.166 22.1307 91.343 26.4984 90.6795 32.1081H71.0083C71.7138 15.754 85.3247 2.65089 102 2.65089ZM110.619 32.1081H93.3859C94.0336 27.9648 97.6456 24.7816 102 24.7816C106.36 24.7868 109.972 27.97 110.619 32.1081ZM2.67479 34.7642H201.32V74.7728H2.67479V34.7642ZM102 106.881C85.3194 106.881 71.6769 93.7829 70.9714 77.4236H133.029C132.323 93.7829 118.681 106.881 102 106.881Z" fill="#4F4A33"/>
<path d="M25.2104 41.1252H10.4043V68.4116H25.2104C28.2275 68.4116 30.7969 65.9434 30.7969 62.8333V46.6618C30.7969 43.5883 28.2275 41.1252 25.2104 41.1252ZM23.7414 60.5268C23.7414 61.7009 22.9253 62.5097 21.7406 62.5097H17.4967V46.9854H21.7406C22.9253 46.9854 23.7414 47.7942 23.7414 48.9683V60.5268Z" fill="#4F4A33"/>
<path d="M38.3843 68.4116H56.3706V62.5097H45.4398V57.5785H54.9016V51.7549H45.4398V46.9854H56.3706V41.1252H38.3843V68.4116Z" fill="#4F4A33"/>
<path d="M79.9437 41.1252H66.1169C64.3635 41.1252 62.9788 42.5394 62.9788 44.1988V65.3015C62.9788 67.081 64.3635 68.4116 66.1169 68.4116H79.9437C81.697 68.4116 83.166 67.0757 83.166 65.3015V58.2255H76.0684V62.1079C76.0684 62.348 75.863 62.5097 75.6998 62.5097H70.5187C70.2712 62.5097 70.0712 62.348 70.0712 62.1079V47.4289C70.0712 47.1889 70.2765 46.9854 70.5187 46.9854H75.6998C75.863 46.9854 76.0684 47.1889 76.0684 47.4289V51.2278H83.166V44.1988C83.166 42.5394 81.697 41.1252 79.9437 41.1252Z" fill="#4F4A33"/>
<path d="M112.125 41.1252H104.211L97.0769 52.4854V41.1252H89.9792V68.4116H97.0769V61.5757L99.32 57.9803L104.701 68.4116H112.452L104.169 52.9707L112.125 41.1252Z" fill="#4F4A33"/>
<path d="M117.264 68.4116H135.251V62.5097H124.32V57.5785H133.782V51.7549H124.32V46.9854H135.251V41.1252H117.264V68.4116Z" fill="#4F4A33"/>
<path d="M159.397 59.7597C161.072 59.7597 162.499 58.3456 162.499 56.6861V44.1988C162.499 42.4611 161.072 41.1252 159.397 41.1252H142.106V68.4116H149.204V59.7597H152.221L155.648 68.4116H162.583L159.197 59.7597H159.397ZM155.438 53.8996C155.438 54.0614 155.232 54.2649 155.069 54.2649H149.198V46.9854H155.069C155.232 46.9854 155.438 47.1889 155.438 47.3872V53.8996Z" fill="#4F4A33"/>
<path d="M164.952 51.1652H169.649L173.809 41.1252H168.038L164.952 51.1652Z" fill="#4F4A33"/>
<path d="M190.373 51.7966H183.276C183.033 51.7966 182.87 51.5931 182.87 51.4313V47.4289C182.87 47.1889 183.033 46.9854 183.276 46.9854H193.227V41.1252H178.995C177.078 41.1252 175.773 42.4194 175.773 44.3188V54.6249C175.773 56.5244 177.078 57.8185 178.995 57.8185H186.093C186.377 57.8185 186.54 57.9803 186.54 58.1838V62.1445C186.54 62.348 186.377 62.5097 186.093 62.5097H175.773V68.4116H190.373C192.29 68.4116 193.596 67.1175 193.596 65.218V54.9902C193.596 53.0908 192.29 51.7966 190.373 51.7966Z" fill="#4F4A33"/>
<path d="M22.6147 85.9869H20.8508L18.7499 82.0627V85.9869H17.0439V78.8483H18.7499L20.9034 82.7828V78.8483H22.6147V85.9869Z" fill="white"/>
<path d="M29.9492 85.1728C29.9492 85.6372 29.5859 85.9869 29.1384 85.9869H25.4842C25.0472 85.9869 24.6628 85.6372 24.6628 85.1728V78.8483H26.5215V84.3483C26.5215 84.4005 26.5742 84.4423 26.6163 84.4423H27.9695C28.0327 84.4423 28.0853 84.4005 28.0853 84.3483V78.8483H29.944V85.1728H29.9492Z" fill="white"/>
<path d="M43.7654 85.1519C43.7654 85.6477 43.4232 85.9869 42.923 85.9869H39.1003V84.4423H41.8015C41.8752 84.4423 41.9173 84.4005 41.9173 84.3483V83.3099C41.9173 83.2577 41.8752 83.216 41.8015 83.216H39.9428C39.4426 83.216 39.1003 82.8768 39.1003 82.381V79.6832C39.1003 79.1875 39.4426 78.8483 39.9428 78.8483H43.6706V80.3824H41.0643C41.0011 80.3824 40.959 80.4346 40.959 80.4972V81.5461C40.959 81.5879 41.0011 81.64 41.0643 81.64H42.923C43.4232 81.64 43.7654 81.9792 43.7654 82.475V85.1519Z" fill="white"/>
<path d="M50.3314 80.3824H47.467V81.6296H49.947V83.1533H47.467V84.4423H50.3314V85.9869H45.6189V78.8483H50.3314V80.3824Z" fill="white"/>
<path d="M64.4635 83.049C64.4635 83.5134 64.0896 83.8943 63.6526 83.8943H62.7049V85.9869H60.8462V83.8943H59.8826C59.4456 83.8943 59.0718 83.5134 59.0718 83.049V78.8483H60.9304V82.141C60.9304 82.1932 60.9936 82.2454 61.0463 82.2454H62.5311C62.5943 82.2454 62.6048 82.1932 62.6048 82.141V78.8483H64.4635V83.049Z" fill="white"/>
<path d="M56.5971 83.7221H56.6498C57.0868 83.7221 57.4607 83.3516 57.4607 82.9185V79.6519C57.4607 79.1979 57.0868 78.8483 56.6498 78.8483H52.1216V85.9921H53.9803V83.7273H54.7701L55.6652 85.9921H57.4817L56.5971 83.7221ZM55.6125 82.188C55.6125 82.2297 55.5599 82.2819 55.5177 82.2819H53.9803V80.3772H55.5177C55.5599 80.3772 55.6125 80.4294 55.6125 80.4816V82.188Z" fill="white"/>
<path d="M36.4731 83.7221H36.5257C36.9628 83.7221 37.3366 83.3516 37.3366 82.9185V79.6519C37.3366 79.1979 36.9628 78.8483 36.5257 78.8483H31.9976V85.9921H33.8562V83.7273H34.646L35.5411 85.9921H37.3577L36.4731 83.7221ZM35.4885 82.188C35.4885 82.2297 35.4358 82.2819 35.3937 82.2819H33.8562V80.3772H35.3937C35.4358 80.3772 35.4885 80.4294 35.4885 80.4816V82.188Z" fill="white"/>
<path d="M143.443 80.1419H141.479V81.8691H143.133V83.0641H141.479V84.854H143.443V86.0698H140.037V78.926H143.443V80.1419Z" fill="white"/>
<path d="M148.024 85.2928C148.024 85.7468 147.692 86.0651 147.245 86.0651H144.607V84.8179H146.487C146.55 84.8179 146.581 84.7762 146.581 84.724V83.2212C146.581 83.169 146.55 83.1272 146.487 83.1272H145.376C144.928 83.1272 144.607 82.7985 144.607 82.3549V79.6988C144.607 79.2448 144.928 78.9265 145.376 78.9265H147.94V80.1424H146.134C146.081 80.1424 146.039 80.1946 146.039 80.2572V81.7392C146.039 81.7809 146.081 81.8331 146.134 81.8331H147.245C147.692 81.8331 148.024 82.1514 148.024 82.6054V85.2928Z" fill="white"/>
<path d="M152.615 80.1371H151.441V86.0651H149.999V80.1371H148.824V78.9213H152.615V80.1371Z" fill="white"/>
<path d="M163.225 81.5774H161.366V83.409H163.225V81.5774Z" fill="white"/>
<path d="M171.049 86.0651H166.558V84.8388H168.138V80.2363L166.911 80.5076L166.695 79.4744L168.359 78.9213H169.57V84.8388H171.049V86.0651Z" fill="white"/>
<path d="M186.956 80.0432L184.471 86.0651H182.923L185.476 80.1267H182.828V78.9213H186.956V80.0432Z" fill="white"/>
<path d="M163.225 81.5774H161.366V83.409H163.225V81.5774Z" fill="white"/>
<path d="M156.586 78.9213H153.695V86.0651H156.586C157.26 86.0651 157.749 85.5798 157.749 84.9014V80.0745C157.749 79.4066 157.26 78.9213 156.586 78.9213ZM156.307 84.5518C156.307 84.7188 156.191 84.8493 156.006 84.8493H155.132V80.1423H156.006C156.185 80.1423 156.307 80.2571 156.307 80.4398V84.5518Z" fill="white"/>
<path d="M181.501 81.6714V79.7041C181.501 79.2396 181.159 78.89 180.69 78.89H178.3C177.831 78.89 177.489 79.2396 177.489 79.7041V81.6714C177.489 82.1358 177.863 82.3497 178.279 82.3602C177.863 82.3811 177.489 82.7411 177.489 83.2055V85.2772C177.489 85.7416 177.831 86.0912 178.3 86.0912H180.69C181.159 86.0912 181.501 85.7416 181.501 85.2772V83.2055C181.501 82.7411 181.106 82.3811 180.711 82.3602C181.106 82.3497 181.501 82.141 181.501 81.6714ZM180.064 84.7815C180.064 84.8545 180.011 84.8963 179.937 84.8963H179.063C178.99 84.8963 178.937 84.8545 178.937 84.7815V83.1116C178.937 83.0386 178.99 82.9864 179.063 82.9864H179.937C180.011 82.9864 180.064 83.0386 180.064 83.1116V84.7815ZM180.064 81.7914C180.064 81.8644 180.011 81.9166 179.937 81.9166H179.063C178.99 81.9166 178.937 81.8644 178.937 81.7914V80.205C178.937 80.132 178.99 80.0798 179.063 80.0798H179.937C180.011 80.0798 180.064 80.132 180.064 80.205V81.7914Z" fill="white"/>
<path d="M175.246 78.9213H172.929C172.45 78.9213 172.108 79.2709 172.108 79.7353V82.7097C172.108 83.1742 172.45 83.5238 172.929 83.5238H174.635V84.7918C174.635 84.8649 174.582 84.9066 174.509 84.9066H172.266V86.0912H175.246C175.799 86.0912 176.078 85.7416 176.078 85.2771V79.8084C176.078 79.3439 175.804 78.9213 175.246 78.9213ZM174.672 82.2975C174.672 82.3706 174.619 82.4227 174.546 82.4227H173.64C173.566 82.4227 173.524 82.3706 173.524 82.2975V80.2363C173.524 80.1632 173.566 80.1215 173.64 80.1215H174.546C174.619 80.1215 174.672 80.1632 174.672 80.2363V82.2975Z" fill="white"/>
</g>
<defs>
<clipPath id="clip0">
<rect width="204" height="109.537" fill="white"/>
</clipPath>
</defs>
</svg>
